<svg width="16" height="16" viewBox="0 0 16 16" fill="none" xmlns="http://www.w3.org/2000/svg">
<path opacity="0.745" d="M6.66668 2.66669H2.66668C1.92668 2.66669 1.33334 3.26002 1.33334 4.00002V12C1.33334 12.3536 1.47382 12.6928 1.72387 12.9428C1.97392 13.1929 2.31305 13.3334 2.66668 13.3334H13.3333C13.687 13.3334 14.0261 13.1929 14.2762 12.9428C14.5262 12.6928 14.6667 12.3536 14.6667 12V5.33335C14.6667 4.97973 14.5262 4.64059 14.2762 4.39054C14.0261 4.1405 13.687 4.00002 13.3333 4.00002H8.00001L6.66668 2.66669Z" fill="#42A5F5"/>
<path opacity="0.81" d="M11.3147 7.17133V8.93199H6.94067V12.4527H11.3147V14.2133L15.6893 10.6927L11.3147 7.17133Z" fill="#C5E5FD"/>
</svg>
