<svg xmlns="http://www.w3.org/2000/svg" viewBox="0 0 24 24"><path fill="#f9a825" d="M10 4H4c-1.11 0-2 .89-2 2v12a2 2 0 0 0 2 2h16a2 2 0 0 0 2-2V8a2 2 0 0 0-2-2h-8l-2-2z"/><path fill="#ffd54f" d="M11.088 18.579v-6.411l6.034-3.206 6.033 3.206v6.41l-6.033 3.206z"/><path fill="#ffd54f" d="m17.122 8.962-6.034 3.206 6.034 3.205 6.033-3.205z" opacity=".127"/> <path fill="#cc9d00" d="M17.122 15.373v6.412l6.033-3.206v-6.411Z"/><path fill="#fff8e1" d="m19.535 10.244-6.033 3.206v1.884l1.206.641v-1.884l6.034-3.205z"/></svg>
